<svg width="25" height="20" viewBox="0 0 25 20" fill="none" xmlns="http://www.w3.org/2000/svg">
<g clip-path="url(#clip0_1247_1700)">
<path d="M12.6134 6.0528H10.396V9.18093H12.2598C12.9868 9.18093 13.547 9.03397 13.9249 8.75898C14.3016 8.48482 14.4997 8.08156 14.4997 7.56157C14.4997 7.07394 14.3292 6.69818 14.0105 6.44369C13.691 6.18851 13.2195 6.0528 12.6134 6.0528Z" fill="url(#paint0_linear_1247_1700)"/>
<path d="M10.396 13.943H12.6961C13.4532 13.943 14.0282 13.7905 14.4134 13.4983C14.7975 13.207 14.9961 12.7744 14.9961 12.2057C14.9961 11.6374 14.7921 11.2105 14.3933 10.9246C13.993 10.6377 13.3934 10.4905 12.5983 10.4905H10.396V13.943Z" fill="url(#paint1_linear_1247_1700)"/>
<path fill-rule="evenodd" clip-rule="evenodd" d="M5.19248 0C3.76602 0 2.71069 1.25392 2.75786 2.61373C2.80317 3.91995 2.74434 5.61201 2.32012 6.99167C1.89463 8.37559 1.17524 9.25034 0 9.36275V10.6373C1.17529 10.7497 1.89463 11.6244 2.32012 13.0083C2.74434 14.388 2.80317 16.08 2.75791 17.3863C2.71069 18.7461 3.76602 20 5.19248 20H19.8093C21.2358 20 22.2911 18.7461 22.2439 17.3863C22.1986 16.08 22.2575 14.388 22.6816 13.0083C23.1072 11.6244 23.8248 10.7497 25 10.6373V9.36275C23.8248 9.25034 23.1072 8.37559 22.6816 6.99167C22.2575 5.61201 22.1986 3.91995 22.2439 2.61373C22.2911 1.25392 21.2358 0 19.8093 0H5.19248ZM8.66215 4.65476H13.0196C13.9867 4.65476 14.79 4.91761 15.3521 5.38467C15.9146 5.8521 16.2335 6.52259 16.2335 7.33309C16.2335 8.46558 15.3857 9.48031 14.3002 9.66849V9.68481C15.7736 9.85588 16.7676 10.8866 16.7676 12.3089C16.7676 13.2518 16.4169 14.011 15.7741 14.5339C15.1318 15.0564 14.2005 15.341 13.0421 15.341H8.66215V4.65476Z" fill="url(#paint2_linear_1247_1700)"/>
</g>
<defs>
<linearGradient id="paint0_linear_1247_1700" x1="3.71479" y1="0.529314" x2="25.6266" y2="17.855" gradientUnits="userSpaceOnUse">
<stop stop-color="#9013FE"/>
<stop offset="1" stop-color="#6610F2"/>
</linearGradient>
<linearGradient id="paint1_linear_1247_1700" x1="3.71479" y1="0.529314" x2="25.6266" y2="17.855" gradientUnits="userSpaceOnUse">
<stop stop-color="#9013FE"/>
<stop offset="1" stop-color="#6610F2"/>
</linearGradient>
<linearGradient id="paint2_linear_1247_1700" x1="3.71479" y1="0.529314" x2="25.6266" y2="17.855" gradientUnits="userSpaceOnUse">
<stop stop-color="#9013FE"/>
<stop offset="1" stop-color="#6610F2"/>
</linearGradient>
<clipPath id="clip0_1247_1700">
<rect width="25" height="20" fill="white"/>
</clipPath>
</defs>
</svg>
