<svg width="14" height="20" viewBox="0 0 14 20" fill="none" xmlns="http://www.w3.org/2000/svg">
<g clip-path="url(#clip0_1247_1713)">
<path d="M3.33431 20C5.17431 20 6.66764 18.5067 6.66764 16.6667V13.3334H3.33431C1.49431 13.3334 0.000976562 14.8267 0.000976562 16.6667C0.000976562 18.5067 1.49431 20 3.33431 20Z" fill="#0ACF83"/>
<path d="M0.000976562 9.99996C0.000976562 8.15996 1.49431 6.66663 3.33431 6.66663H6.66764V13.3333H3.33431C1.49431 13.3333 0.000976562 11.84 0.000976562 9.99996Z" fill="#A259FF"/>
<path d="M0.000976562 3.33333C0.000976562 1.49333 1.49431 0 3.33431 0H6.66764V6.66667H3.33431C1.49431 6.66667 0.000976562 5.17333 0.000976562 3.33333Z" fill="#F24E1E"/>
<path d="M6.66803 0H10.0014C11.8414 0 13.3347 1.49333 13.3347 3.33333C13.3347 5.17333 11.8414 6.66667 10.0014 6.66667H6.66803V0Z" fill="#FF7262"/>
<path d="M13.3347 10C13.3347 11.84 11.8414 13.3333 10.0014 13.3333C8.16136 13.3333 6.66803 11.84 6.66803 10C6.66803 8.16 8.16136 6.66667 10.0014 6.66667C11.8414 6.66667 13.3347 8.16 13.3347 10Z" fill="#1ABCFE"/>
</g>
<defs>
<clipPath id="clip0_1247_1713">
<rect width="14" height="20" fill="white"/>
</clipPath>
</defs>
</svg>
