<svg width="15" height="20" viewBox="0 0 15 20" fill="none" xmlns="http://www.w3.org/2000/svg">
<g clip-path="url(#clip0_1247_1693)">
<path d="M0.0078125 16.1368L2.46952 0.384668C2.49961 0.191481 2.64986 0.0391906 2.84262 0.00644357C3.03538 -0.0263035 3.22746 0.0679092 3.31963 0.240327L5.86546 4.9887L6.88023 3.05661C6.95881 2.90721 7.11374 2.81367 7.28256 2.81367C7.45138 2.81367 7.60629 2.90721 7.6849 3.05661L14.5552 16.1368H0.0078125V16.1368Z" fill="#FFA000"/>
<path d="M8.51238 10.0007L5.86429 4.98633L0.0078125 16.1367L8.51238 10.0007Z" fill="#F57C00"/>
<path d="M14.5553 16.1368L12.6698 4.46927C12.6413 4.30172 12.5217 4.16408 12.3598 4.1122C12.1979 4.06031 12.0206 4.1035 11.9004 4.22362L0.0078125 16.1366L6.58826 19.8269C7.00149 20.0576 7.50476 20.0576 7.91798 19.8269L14.5553 16.1366V16.1368Z" fill="#FFCA28"/>
</g>
<defs>
<clipPath id="clip0_1247_1693">
<rect width="15" height="20" fill="white"/>
</clipPath>
</defs>
</svg>
