<svg width="20" height="20" viewBox="0 0 20 20" fill="none" xmlns="http://www.w3.org/2000/svg">
<g clip-path="url(#clip0_1247_1667)">
<path d="M19.6232 9.10912L10.8909 0.377259C10.3881 -0.125753 9.57252 -0.125753 9.06929 0.377259L7.25618 2.1908L9.55619 4.49081C10.0908 4.31015 10.7037 4.43139 11.1297 4.85757C11.5582 5.28636 11.6784 5.90451 11.4931 6.44104L13.7102 8.65791C14.2468 8.4729 14.8654 8.59261 15.2937 9.02162C15.8923 9.62018 15.8923 10.5901 15.2937 11.1891C14.6947 11.7879 13.7248 11.7879 13.1256 11.1891C12.6755 10.7385 12.564 10.0768 12.7924 9.52224L10.7246 7.45469V12.8955C10.8704 12.9678 11.0082 13.064 11.1297 13.1855C11.7282 13.784 11.7282 14.7539 11.1297 15.3531C10.5311 15.9515 9.56054 15.9515 8.96242 15.3531C8.36385 14.7537 8.36385 13.7838 8.96242 13.1855C9.11042 13.0377 9.28172 12.9258 9.46456 12.8509V7.35935C9.28172 7.28448 9.11086 7.17369 8.96242 7.02481C8.50903 6.57164 8.39998 5.90604 8.63244 5.34926L6.36508 3.08146L0.377259 9.06863C-0.125753 9.57208 -0.125753 10.3877 0.377259 10.8907L9.10999 19.6227C9.61278 20.1258 10.4281 20.1258 10.9316 19.6227L19.6232 10.9311C20.1262 10.4281 20.1262 9.61213 19.6232 9.10912Z" fill="#F05133"/>
</g>
<defs>
<clipPath id="clip0_1247_1667">
<rect width="20" height="20" fill="white"/>
</clipPath>
</defs>
</svg>
