<svg width="20" height="20" viewBox="0 0 20 20" fill="none" xmlns="http://www.w3.org/2000/svg">
<g clip-path="url(#clip0_1247_1661)">
<path d="M20 0H0V20H20V0Z" fill="#F7DF1E"/>
<path d="M13.4345 15.6251C13.8374 16.2829 14.3615 16.7664 15.2885 16.7664C16.0672 16.7664 16.5647 16.3772 16.5647 15.8394C16.5647 15.195 16.0536 14.9667 15.1964 14.5918L14.7266 14.3902C13.3704 13.8124 12.4694 13.0886 12.4694 11.5585C12.4694 10.1489 13.5434 9.07593 15.2218 9.07593C16.4167 9.07593 17.2758 9.4918 17.8948 10.5807L16.4313 11.5204C16.1091 10.9426 15.7615 10.715 15.2218 10.715C14.6713 10.715 14.3225 11.0642 14.3225 11.5204C14.3225 12.0842 14.6717 12.3124 15.478 12.6616L15.9478 12.8629C17.5447 13.5477 18.4463 14.2458 18.4463 15.8153C18.4463 17.5074 17.1171 18.4343 15.332 18.4343C13.5866 18.4343 12.459 17.6026 11.9072 16.5124L13.4345 15.6251ZM6.79547 15.788C7.0907 16.3118 7.35928 16.7547 8.00499 16.7547C8.62245 16.7547 9.01197 16.5131 9.01197 15.5737V9.18323H10.8913V15.5991C10.8913 17.5451 9.75039 18.4308 8.08499 18.4308C6.58023 18.4308 5.7088 17.6521 5.26562 16.7142L6.79547 15.788Z" fill="black"/>
</g>
<defs>
<clipPath id="clip0_1247_1661">
<rect width="20" height="20" fill="white"/>
</clipPath>
</defs>
</svg>
