<svg width="20" height="20" viewBox="0 0 20 20" fill="none" xmlns="http://www.w3.org/2000/svg">
<g clip-path="url(#clip0_1247_1651)">
<path d="M5.03978 2.99962L7.4122 5.96826L8.58398 5.03182L7.67956 3.9001H8.00187C9.47016 3.90046 10.8891 4.43041 11.9981 5.39268C13.1072 6.35499 13.8319 7.68506 14.0392 9.13871C14.2466 10.5924 13.9226 12.072 13.1268 13.306C12.3311 14.5401 11.1168 15.4456 9.70714 15.8565C9.13666 16.0227 8.54971 16.1034 7.96459 16.1L-1 16.1001V17.9001H8C8.74254 17.9001 9.48695 17.7955 10.2108 17.5846C12.0365 17.0525 13.609 15.8797 14.6396 14.2816C15.6702 12.6834 16.0897 10.7671 15.8212 8.88453C15.5527 7.00194 14.6141 5.27938 13.1777 4.03311C11.7414 2.78684 9.90352 2.1005 8.00187 2.1001H7.67921L8.58392 0.968342L7.41226 0.0317383L5.03978 2.99962Z" fill="#FD5B4F"/>
<path d="M3.29849 3.65169C1.92708 4.66737 0.91708 6.10356 0.427943 7.74887C-0.113961 9.57167 0.0198258 11.5288 0.804744 13.2609C1.10392 13.9211 1.49007 14.5317 1.9491 15.0787L3.32786 13.9215C2.97343 13.4992 2.67529 13.0277 2.44426 12.5179C1.83818 11.1805 1.73488 9.66928 2.15331 8.2618C2.53099 6.9914 3.31087 5.88242 4.36977 5.09818L3.29849 3.65169Z" fill="#FD5B4F"/>
<path d="M17.3185 17.9001H14V16.1001H17.3188L16.4141 14.9683L17.5858 14.0317L19.9583 16.9996L17.5858 19.9683L16.4141 19.0318L17.3185 17.9001Z" fill="#FD5B4F"/>
</g>
<defs>
<clipPath id="clip0_1247_1651">
<rect width="20" height="20" fill="white"/>
</clipPath>
</defs>
</svg>
